<?xml version="1.0" encoding="iso-8859-1"?>
<!-- Generator: Adobe Illustrator 19.0.0, SVG Export Plug-In . SVG Version: 6.00 Build 0)  -->
<svg version="1.1" id="Capa_1" xmlns="http://www.w3.org/2000/svg" xmlns:xlink="http://www.w3.org/1999/xlink" x="0px" y="0px"
	 viewBox="0 0 329.607 329.607" style="enable-background:new 0 0 329.607 329.607;" xml:space="preserve">
<path style="fill:#2FB55B;" d="M184.8,251.003h-11.2H40c-18.8,0-34-15.2-34-34v-144.4c0-18.8,15.2-34,34-34h250
	c18.8,0,34,15.2,34,34v144.4c0,18.8-15.2,34-34,34h-10.8H184.8z"/>
<path style="fill:#49C45D;" d="M33.2,217.003v-144.4c0-18.8,15.2-34,34-34H40c-18.8,0-34,15.2-34,34v144.4c0,18.8,15.2,34,34,34
	h27.2C48.4,251.003,33.2,235.803,33.2,217.003z"/>
<rect x="8.4" y="77.403" style="fill:#306584;" width="314" height="41.2"/>
<rect x="8.4" y="77.403" style="fill:#3F7889;" width="24.8" height="41.2"/>
<path style="fill:#2FB55B;" d="M289.6,38.603H40c-18.8,0-34,15.2-34,34v5.2h317.6v-5.2C323.6,53.803,308.4,38.603,289.6,38.603z"/>
<rect x="184.8" y="208.603" style="fill:#EFBF1D;" width="94" height="82.8"/>
<rect x="184.8" y="208.603" style="fill:#F4D32F;" width="20" height="82.8"/>
<g>
	<path style="fill:#382E22;" d="M289.6,32.603H40c-22,0-40,18-40,40v144.4c0,22,18,40,40,40h138.8v34c0,3.6,2.8,6,6,6h94
		c3.6,0,6-2.8,6-6v-34h4.8c22,0,40-18,40-40v-144.4C330,50.603,312,32.603,289.6,32.603z M12,83.803h305.6v28.4H12V83.803z
		 M40,45.003h250c14.8,0,27.2,12,27.6,26.8H12C12.8,56.603,24.8,45.003,40,45.003z M272.8,285.003h-81.6v-70.4h81.6V285.003z
		 M204,202.603c3.2-12.4,14.4-21.6,28-21.6s24.8,9.2,28,21.6H204z M289.6,245.003h-4.8v-36.4c0-3.6-2.8-6-6-6h-6.4
		c-3.6-19.2-20.4-34-40.4-34c-20.4,0-37.2,14.8-40.4,34h-6.8c-3.6,0-6,2.8-6,6v36.4H40c-15.2,0-28-12.4-28-28v-92.4h305.6v92.4
		C317.6,232.603,305.2,245.003,289.6,245.003z"/>
	<path style="fill:#382E22;" d="M82.4,209.403H34.8c-3.6,0-6,2.8-6,6c0,3.6,2.8,6,6,6h47.6c3.6,0,6-2.8,6-6
		C88.4,212.203,85.6,209.403,82.4,209.403z"/>
	<path style="fill:#382E22;" d="M164.8,209.403h-47.6c-3.6,0-6,2.8-6,6c0,3.6,2.8,6,6,6h47.6c3.6,0,6-2.8,6-6
		C170.8,212.203,168.4,209.403,164.8,209.403z"/>
	<path style="fill:#382E22;" d="M232,270.603c3.6,0,6-2.8,6-6v-33.2c0-3.6-2.8-6-6-6c-3.6,0-6,2.8-6,6v33.2
		C225.6,267.803,228.4,270.603,232,270.603z"/>
</g>
<g>
</g>
<g>
</g>
<g>
</g>
<g>
</g>
<g>
</g>
<g>
</g>
<g>
</g>
<g>
</g>
<g>
</g>
<g>
</g>
<g>
</g>
<g>
</g>
<g>
</g>
<g>
</g>
<g>
</g>
</svg>
