<?xml version="1.0" encoding="iso-8859-1"?>
<!-- Generator: Adobe Illustrator 19.0.0, SVG Export Plug-In . SVG Version: 6.00 Build 0)  -->
<svg version="1.1" id="Layer_1" xmlns="http://www.w3.org/2000/svg" xmlns:xlink="http://www.w3.org/1999/xlink" x="0px" y="0px"
	 viewBox="0 0 488.243 488.243" style="enable-background:new 0 0 488.243 488.243;" xml:space="preserve">
<g id="XMLID_2217_">
	<g id="XMLID_1590_">
		<polygon style="fill:#E9483D;" points="343.296,122.062 267.008,122.062 244.122,144.948 221.235,122.062 144.947,122.062 
			144.947,7.63 343.296,7.63 		"/>
	</g>
	<g id="XMLID_1592_">
		<polyline style="fill:#ED6D64;" points="144.947,7.63 144.947,122.062 221.235,122.062 244.122,144.948 267.008,122.062 
			213.606,7.63 144.947,7.63 		"/>
	</g>
	<g id="XMLID_1481_">
		<polygon style="fill:#F7931E;" points="480.614,251.751 7.629,251.751 122.061,167.835 366.182,167.835 		"/>
	</g>
	<g id="XMLID_1526_">
		<polygon style="fill:#FBB03B;" points="389.069,251.751 7.629,251.751 122.061,167.835 297.523,167.835 		"/>
	</g>
	<g id="XMLID_1314_">
		<rect x="7.629" y="251.751" style="fill:#F7931E;" width="472.985" height="228.864"/>
	</g>
	<g id="XMLID_1542_">
		<polygon style="fill:#E9483D;" points="297.523,251.751 190.72,251.751 221.235,167.835 267.008,167.835 		"/>
	</g>
	<g id="XMLID_1556_">
		<polygon style="fill:#ED6D64;" points="259.379,251.751 190.72,251.751 221.235,167.835 244.122,167.835 		"/>
	</g>
	<g id="XMLID_1495_">
		<rect x="7.629" y="251.751" style="fill:#FBB03B;" width="381.44" height="228.864"/>
	</g>
	<g id="XMLID_1607_">
		<polygon style="fill:#FFFFFF;" points="7.629,480.623 7.629,251.751 122.061,167.835 149.713,167.835 30.52,255.614 
			30.792,480.606 		"/>
	</g>
	<g id="XMLID_1527_">
		<rect x="190.72" y="251.751" style="fill:#E9483D;" width="106.803" height="99.174"/>
	</g>
	<g id="XMLID_1589_">
		<rect x="350.925" y="358.554" style="fill:#E9483D;" width="83.917" height="53.402"/>
	</g>
	<g id="XMLID_1588_">
		<rect x="312.781" y="396.698" style="fill:#ED6D64;" width="99.174" height="45.773"/>
	</g>
	<g id="XMLID_1572_">
		<rect x="190.72" y="251.751" style="fill:#ED6D64;" width="68.659" height="99.174"/>
	</g>
	<path style="fill:#1D1D1B;" d="M368.68,160.206H119.563L0,247.885v240.358h488.243V247.885L368.68,160.206z M226.579,175.463
		h35.086l24.967,68.659h-85.019L226.579,175.463z M185.377,244.122h-2.286H30.933l41.611-30.515h123.929L185.377,244.122z
		 M198.349,259.38h91.545v83.916h-91.545L198.349,259.38L198.349,259.38z M302.866,244.122l-11.096-30.515H415.7l41.611,30.515
		H305.152H302.866z M394.894,198.35H286.222l-8.322-22.887h85.785L394.894,198.35z M124.559,175.463h85.785l-8.322,22.887H93.35
		L124.559,175.463z M15.258,472.985V259.38h167.833v99.174h122.061V259.38h167.833v213.605L15.258,472.985L15.258,472.985z"/>
	<g id="XMLID_704_">
		<rect x="30.516" y="442.471" style="fill:#1D1D1B;" width="91.545" height="15.258"/>
	</g>
	<g id="XMLID_708_">
		<rect x="137.318" y="442.471" style="fill:#1D1D1B;" width="22.887" height="15.258"/>
	</g>
	<g id="XMLID_713_">
		<rect x="30.516" y="411.956" style="fill:#1D1D1B;" width="38.144" height="15.258"/>
	</g>
	<g id="XMLID_714_">
		<rect x="83.917" y="411.956" style="fill:#1D1D1B;" width="22.886" height="15.258"/>
	</g>
	<path style="fill:#1D1D1B;" d="M442.47,350.924h-99.174v38.145h-38.144v61.03h114.432v-30.516h22.886L442.47,350.924
		L442.47,350.924z M404.326,434.841H320.41v-30.515h83.917v30.515H404.326z M427.212,404.326h-7.628V389.07h-61.03v-22.887h68.659
		v38.144H427.212z"/>
	<g id="XMLID_716_">
		<path style="fill:#1D1D1B;" d="M244.118,155.738l-26.042-26.047h-80.757V0.001h213.606v129.69h-80.76L244.118,155.738z
			 M152.576,114.433h71.819l19.723,19.727l19.726-19.727h71.822V15.259h-183.09V114.433z"/>
	</g>
	<polygon style="fill:#1D1D1B;" points="209.138,45.774 219.001,35.911 208.212,25.122 179.932,53.403 208.212,81.684 
		219.001,70.895 209.138,61.032 282.266,61.032 282.266,83.917 244.122,83.917 244.122,99.175 297.523,99.175 297.523,45.774 	"/>
</g>
<g>
</g>
<g>
</g>
<g>
</g>
<g>
</g>
<g>
</g>
<g>
</g>
<g>
</g>
<g>
</g>
<g>
</g>
<g>
</g>
<g>
</g>
<g>
</g>
<g>
</g>
<g>
</g>
<g>
</g>
</svg>
