<?xml version="1.0" encoding="iso-8859-1"?>
<!-- Generator: Adobe Illustrator 19.0.0, SVG Export Plug-In . SVG Version: 6.00 Build 0)  -->
<svg version="1.1" id="Capa_1" xmlns="http://www.w3.org/2000/svg" xmlns:xlink="http://www.w3.org/1999/xlink" x="0px" y="0px"
	 viewBox="0 0 368.003 368.003" style="enable-background:new 0 0 368.003 368.003;" xml:space="preserve">
<circle style="fill:#EFBF1D;" cx="83.6" cy="184.002" r="77.6"/>
<circle style="fill:#2FB55B;" cx="284.4" cy="184.002" r="77.6"/>
<path style="fill:#F4D32F;" d="M26,184.002c0-39.6,29.6-72,67.6-76.8c-3.2-0.4-6.8-0.8-10-0.8c-42.8,0-77.6,34.8-77.6,77.6
	s34.8,77.6,77.6,77.6c3.2,0,6.8-0.4,10-0.8C55.2,256.002,26,223.602,26,184.002z"/>
<path style="fill:#49C45D;" d="M227.2,184.002c0-39.6,29.6-72,67.6-76.8c-3.2-0.4-6.8-0.8-10-0.8c-42.8,0-77.6,34.8-77.6,77.6
	s34.8,77.6,77.6,77.6c3.2,0,6.8-0.4,10-0.8C256.4,256.002,227.2,223.602,227.2,184.002z"/>
<g>
	<path style="fill:#382E22;" d="M167.2,184.002c0-46-37.6-83.6-83.6-83.6S0,138.002,0,184.002s37.6,83.6,83.6,83.6
		S167.2,230.402,167.2,184.002z M83.6,255.602c-39.6,0-71.6-32-71.6-71.6c0-39.2,32-71.2,71.2-71.2s71.2,32,71.2,71.2
		C154.8,223.602,122.8,255.602,83.6,255.602z"/>
	<path style="fill:#382E22;" d="M284.4,100.402c-46,0-83.6,37.6-83.6,83.6s37.6,83.6,83.6,83.6s83.6-37.6,83.6-83.6
		C368.4,138.002,330.8,100.402,284.4,100.402z M284.4,255.602c-39.2,0-71.2-32-71.2-71.2s32-71.2,71.2-71.2s71.2,32,71.2,71.2
		C356,223.602,324,255.602,284.4,255.602z"/>
	<path style="fill:#382E22;" d="M55.2,164.802H34.8v12.4H52c-0.4,2.4-0.4,4.4-0.4,6.8c0,2.4,0.4,4.8,0.4,6.8H34.8v12.4h20.4
		c7.6,17.6,24.8,30,45.2,30v-12.4c-13.2,0-24.8-7.2-31.2-17.6h28.4v-12.4H64.4c-0.4-2.4-0.8-4.4-0.8-6.8s0.4-4.8,0.8-6.8h33.2v-12.4
		H69.2c6.4-10.4,18-17.6,31.2-17.6v-12.4C80.4,134.802,62.8,147.202,55.2,164.802z"/>
	<path style="fill:#382E22;" d="M290,177.202c-11.2-4-16-7.2-16-14.4c0-6.4,5.2-11.6,14-11.6c8,0,14,2.8,17.2,4.8l4-11.2
		c-4-2.4-10.4-4.4-18-5.2v-11.6h-12.4v12.4c-12.4,3.2-20,12.4-20,23.6c0,10,7.2,18.4,22.4,24c11.2,4.4,15.6,8.4,15.6,15.6
		c0,6.8-5.2,12.4-16.4,12.4c-7.6,0-15.6-3.2-20.4-6l-4,11.6c5.6,3.2,13.6,5.6,22.4,5.6v10.8h12.4v-12c13.2-3.2,20.8-12,20.8-24
		C312.4,190.402,304.8,182.802,290,177.202z"/>
	<path style="fill:#382E22;" d="M144,75.602h-28c18-17.2,41.6-27.2,66.8-27.2c30.4,0,58,14,76.4,38l9.6-7.6
		c-20.8-27.2-52-42.8-86.4-42.8c-30.4,0-58.8,12.4-79.6,34.8v-28.4H90.4v43.6l-0.8,2H144V75.602z"/>
	<path style="fill:#382E22;" d="M217.6,292.402h28c-18,17.2-41.6,27.2-66.8,27.2c-30.4,0-58-14-76.4-38l-9.6,7.6
		c20.8,27.2,52,42.8,86.4,42.8c30.4,0,58.8-12.4,79.6-34.8v28.4h12.4v-43.6l1.6-2h-54.4L217.6,292.402z"/>
</g>
<g>
</g>
<g>
</g>
<g>
</g>
<g>
</g>
<g>
</g>
<g>
</g>
<g>
</g>
<g>
</g>
<g>
</g>
<g>
</g>
<g>
</g>
<g>
</g>
<g>
</g>
<g>
</g>
<g>
</g>
</svg>
